<svg width="28.000000" height="28.000000" viewBox="0 0 28 28" fill="none" xmlns="http://www.w3.org/2000/svg" xmlns:xlink="http://www.w3.org/1999/xlink">
	<desc>
			Created with Pixso.
	</desc>
	<defs>
		<filter id="filter_2_1079_dd" x="0.000000" y="0.000000" width="28.000000" height="28.000000" filterUnits="userSpaceOnUse" color-interpolation-filters="sRGB">
			<feFlood flood-opacity="0" result="BackgroundImageFix"/>
			<feColorMatrix in="SourceAlpha" type="matrix" values="0 0 0 0 0 0 0 0 0 0 0 0 0 0 0 0 0 0 127 0" result="hardAlpha"/>
			<feOffset dx="0" dy="3"/>
			<feGaussianBlur stdDeviation="2"/>
			<feComposite in2="hardAlpha" operator="out" k2="-1" k3="1"/>
			<feColorMatrix type="matrix" values="0 0 0 0 0 0 0 0 0 0 0 0 0 0 0 0 0 0 0.09 0"/>
			<feBlend mode="normal" in2="BackgroundImageFix" result="effect_dropShadow_1"/>
			<feBlend mode="normal" in="SourceGraphic" in2="effect_dropShadow_1" result="shape"/>
		</filter>
	</defs>
	<g filter="url(#filter_2_1079_dd)">
		<rect id="icon__COLOR:special-10" x="6.000000" y="3.000000" rx="8.000000" width="16.000000" height="16.000000" fill="#313131" fill-opacity="1.000000"/>
	</g>
	<path id="icon__COLOR:invisible" d="M14 17C17.3135 17 20 14.3137 20 11C20 7.68628 17.3135 5 14 5C10.6865 5 8 7.68628 8 11C8 14.3137 10.6865 17 14 17ZM14 19C18.418 19 22 15.4183 22 11C22 6.58167 18.418 3 14 3C9.58203 3 6 6.58167 6 11C6 15.4183 9.58203 19 14 19Z" fill="#FFFFFF" fill-opacity="1.000000" fill-rule="evenodd"/>
</svg>
